PathFileType	4	(X/Y/Z)	/Users/itak/Documents/Research/Walk-IL/dataset/trc/00109_00007.trc
DataRate	CameraRate	NumFrames	NumMarkers	Units	OrigDataRate	OrigDataStartFrame	OrigNumFrames
100.000000	100.000000	4	53	mm	100.000000	434	579
Frame#	Time	RPSI			LPSI			L3			STRN			T10			C7			CLAV			RBAK			LBAK			LSHO			LUPA			LAEL			LAOL			LWTS			LWPS			LFRA			LIFD			LHPS			LHTS			RSHO			RUPA			RAEL			RAOL			RWTS			RWPS			RFRA			RIFD			RHTS			RHPS			RBHD			LFHD			RFHD			LBHD			LHIP			RHIP			RASI			LASI			LKNE			LTHI			LANK			LTIP			LTOE			LMT1			LMT5			LHEE			RKNE			RTHI			RANK			RTIP			RTOE			RMT1			RMT5			RHEE			
		X1	Y1	Z1	X2	Y2	Z2	X3	Y3	Z3	X4	Y4	Z4	X5	Y5	Z5	X6	Y6	Z6	X7	Y7	Z7	X8	Y8	Z8	X9	Y9	Z9	X10	Y10	Z10	X11	Y11	Z11	X12	Y12	Z12	X13	Y13	Z13	X14	Y14	Z14	X15	Y15	Z15	X16	Y16	Z16	X17	Y17	Z17	X18	Y18	Z18	X19	Y19	Z19	X20	Y20	Z20	X21	Y21	Z21	X22	Y22	Z22	X23	Y23	Z23	X24	Y24	Z24	X25	Y25	Z25	X26	Y26	Z26	X27	Y27	Z27	X28	Y28	Z28	X29	Y29	Z29	X30	Y30	Z30	X31	Y31	Z31	X32	Y32	Z32	X33	Y33	Z33	X34	Y34	Z34	X35	Y35	Z35	X36	Y36	Z36	X37	Y37	Z37	X38	Y38	Z38	X39	Y39	Z39	X40	Y40	Z40	X41	Y41	Z41	X42	Y42	Z42	X43	Y43	Z43	X44	Y44	Z44	X45	Y45	Z45	X46	Y46	Z46	X47	Y47	Z47	X48	Y48	Z48	X49	Y49	Z49	X50	Y50	Z50	X51	Y51	Z51	X52	Y52	Z52	X53	Y53	Z53	

435	4.34	-1268.068969726562	1110.988891601562	-270.1976013183594	-1262.629150390625	1119.119140625	-405.1311950683594	-1268.676513671875	1157.83642578125	-337.8372802734375	-1017.585815429688	1330.731689453125	-329.2426147460938	-1273.470825195312	1311.89794921875	-330.1686401367188	-1198.486328125	1597.52783203125	-348.0050354003906	-1033.554809570312	1469.43408203125	-338.2700500488281	-1276.3779296875	1424.728149414062	-254.7490844726562	-1209.70556640625	1578.636108398438	-449.4643249511719	-1126.086181640625	1551.743041992188	-517.655517578125	-1165.54736328125	1424.919555664062	-586.1746215820312	-1189.577392578125	1210.556030273438	-615.1239624023438	-1251.698608398438	1204.805053710938	-553.0776977539062	-1120.209716796875	941.5972900390625	-590.0966186523438	-1206.200805664062	926.8109130859375	-609.5947875976562	-1189.732666015625	1093.65234375	-624.7875366210938	-1132.015747070312	748.5586547851562	-572.3961791992188	-1186.7265625	848.9737548828125	-615.673095703125	-1117.293090820312	851.5108032226562	-604.7262573242188	-1143.832885742188	1576.697509765625	-166.9598999023438	-1164.099731445312	1506.16943359375	-100.8700714111328	-1179.928466796875	1209.689086914062	-69.644287109375	-1196.777099609375	1206.578002929688	-165.1391906738281	-1013.122680664062	983.9853515625	-94.53341674804688	-1081.978759765625	957.89501953125	-56.47312927246094	-1149.721069335938	1137.52099609375	-55.76207733154297	-964.3839721679688	794.0578002929688	-110.1166305541992	-969.6442260742188	880.48876953125	-90.33602142333984	-1033.252319335938	864.6175537109375	-53.11696243286133	-1158.5859375	1750.97216796875	-272.3522644042969	-1006.529907226562	1825.004272460938	-413.8947448730469	-1001.40087890625	1832.711547851562	-284.1447143554688	-1171.813232421875	1746.270751953125	-407.4560546875	-1163.602905273438	1030.870239257812	-511.8012084960938	-1157.182983398438	1003.492004394531	-147.3211822509766	-1066.155151367188	1072.466186523438	-192.2658233642578	-1059.591064453125	1084.548461914062	-455.7330322265625	-1000.861267089844	551.1297607421875	-484.7329406738281	-1070.621215820312	680.8706665039062	-516.4330444335938	-946.0799560546875	35.3795166015625	-483.2115478515625	-1018.2578125	288.2651062011719	-515.251220703125	-734.3257446289062	105.7273483276367	-417.2763366699219	-812.623291015625	89.93069458007812	-385.5821533203125	-823.6132202148438	58.91537094116211	-497.1195983886719	-1018.379089355469	25.1801586151123	-424.0734558105469	-1210.150146484375	513.4140014648438	-204.8798217773438	-1154.5908203125	790.8872680664062	-164.7370300292969	-1421.05712890625	35.17614364624023	-244.2269287109375	-1264.774536132812	384.3258666992188	-199.7353363037109	-1185.853393554688	43.57386779785156	-270	-1239.640747070312	31.47512817382812	-316.5820007324219	-1289.433349609375	40.03734970092773	-206.7147827148438	-1474.15283203125	42.3309440612793	-298.7140197753906	
436	4.350000000000001	-1276.786865234375	1110.893920898438	-268.7474060058594	-1271.097900390625	1118.779296875	-403.6399230957031	-1277.288940429688	1157.959106445312	-336.5517578125	-1025.084228515625	1330.410400390625	-327.5704650878906	-1281.231201171875	1312.325561523438	-329.4127197265625	-1204.8623046875	1597.628295898438	-346.7394104003906	-1040.417236328125	1469.226440429688	-336.5881042480469	-1283.70068359375	1425.071533203125	-253.8749694824219	-1215.763061523438	1578.921630859375	-448.2948913574219	-1131.970458984375	1551.8916015625	-516.260009765625	-1171.551513671875	1425.230224609375	-584.958984375	-1195.733520507812	1210.713500976562	-613.7953491210938	-1258.180908203125	1205.11328125	-552.0828247070312	-1126.043090820312	941.984375	-587.9171752929688	-1211.866088867188	926.9412841796875	-607.8899536132812	-1195.756713867188	1093.797119140625	-623.2777099609375	-1137.451049804688	748.9620361328125	-569.7971801757812	-1192.166870117188	849.1325073242188	-613.6473999023438	-1122.803833007812	851.8781127929688	-602.3141479492188	-1150.908569335938	1576.458251953125	-165.5319671630859	-1171.429565429688	1505.914916992188	-99.55546569824219	-1187.380859375	1209.438598632812	-68.22559356689453	-1204.069213867188	1206.2998046875	-163.7373657226562	-1020.69677734375	983.5758056640625	-92.71474456787109	-1089.660278320312	957.5958862304688	-54.7195930480957	-1157.224609375	1137.26171875	-54.23321151733398	-972.2034301757812	793.5653686523438	-108.0896453857422	-977.3355102539062	880.018310546875	-88.37552642822266	-1041.066528320312	864.2636108398438	-51.2002067565918	-1164.527954101562	1750.845336914062	-270.6193237304688	-1012.001586914062	1824.504028320312	-411.8852233886719	-1007.054443359375	1832.153930664062	-282.1158142089844	-1177.533813476562	1746.248901367188	-405.7460632324219	-1171.911987304688	1030.1884765625	-510.0085754394531	-1165.8427734375	1004.06982421875	-145.3739624023438	-1074.839965820312	1072.828125	-190.3851623535156	-1067.826538085938	1084.173950195312	-453.9232482910156	-1004.121948242188	552.2115478515625	-482.9175109863281	-1075.6376953125	681.3482666015625	-514.5057983398438	-948.7267456054688	36.47272109985352	-482.7447204589844	-1021.628967285156	288.9139709472656	-513.6809692382812	-737.3968505859375	109.4828414916992	-418.5404357910156	-815.0742797851562	92.38751220703125	-386.15576171875	-826.7745361328125	62.01570510864258	-497.8258056640625	-1020.196228027344	24.52050971984863	-423.0072326660156	-1216.160034179688	513.6851196289062	-203.3128204345703	-1162.27685546875	791.37744140625	-162.6178588867188	-1421.658081054688	33.73007202148438	-244.1358337402344	-1269.108764648438	383.9659118652344	-198.6912078857422	-1186.242919921875	43.76531982421875	-270.0989685058594	-1239.953125	31.38505363464355	-316.5807189941406	-1289.837280273438	40.07771301269531	-206.6977844238281	-1474.655639648438	40.0777473449707	-298.7963256835938	
437	4.36	-1285.348022460938	1110.853149414062	-267.3462219238281	-1279.39111328125	1118.451782226562	-402.2160339355469	-1285.753051757812	1158.047485351562	-335.3209838867188	-1032.50341796875	1330.102905273438	-325.96533203125	-1288.92138671875	1312.767456054688	-328.744873046875	-1211.177856445312	1597.769775390625	-345.5654907226562	-1047.1943359375	1469.023193359375	-334.9722595214844	-1290.946166992188	1425.42236328125	-253.1022338867188	-1221.752807617188	1579.199096679688	-447.2133178710938	-1137.774291992188	1552.000244140625	-514.9374389648438	-1177.492431640625	1425.504516601562	-583.8190307617188	-1201.741333007812	1210.800659179688	-612.5753784179688	-1264.576904296875	1205.346557617188	-551.2551879882812	-1131.740234375	942.3280029296875	-585.7604370117188	-1217.3447265625	927.0191650390625	-606.2993774414062	-1201.6083984375	1093.879150390625	-621.8623046875	-1142.683227539062	749.3268432617188	-567.2945556640625	-1197.396240234375	849.2505493164062	-611.7434692382812	-1128.114868164062	852.2274780273438	-599.9530639648438	-1157.922729492188	1576.220092773438	-164.1688232421875	-1178.720947265625	1505.653564453125	-98.32420349121094	-1194.936401367188	1209.186645507812	-66.8936767578125	-1211.41259765625	1206.00927734375	-162.423828125	-1028.422119140625	983.129638671875	-90.86880493164062	-1097.526489257812	957.2695922851562	-52.98720932006836	-1164.872924804688	1136.984375	-52.76621246337891	-980.1834106445312	793.0259399414062	-105.9858779907227	-985.2141723632812	879.5013427734375	-86.35128784179688	-1049.100219726562	863.8762817382812	-49.26919555664062	-1170.42822265625	1750.73779296875	-268.9610900878906	-1017.445922851562	1824.044067382812	-409.955322265625	-1012.675842285156	1831.636352539062	-280.1665954589844	-1183.213134765625	1746.248291015625	-404.10302734375	-1180.00830078125	1029.534545898438	-508.2355041503906	-1174.325439453125	1004.729309082031	-143.4258117675781	-1083.362426757812	1073.215576171875	-188.5159454345703	-1075.840576171875	1083.8310546875	-452.1508483886719	-1007.093139648438	553.422119140625	-481.1812133789062	-1080.406860351562	681.9514770507812	-512.6467895507812	-952.1179809570312	37.58456420898438	-482.1953735351562	-1025.110473632812	289.6643981933594	-512.0997924804688	-740.8238525390625	112.5020751953125	-420.3810119628906	-817.838134765625	94.39924621582031	-387.0857849121094	-830.6925048828125	64.73671722412109	-498.8141174316406	-1022.570739746094	24.20055961608887	-421.6658935546875	-1221.856567382812	514.0646362304688	-201.6373748779297	-1169.746337890625	791.9663696289062	-160.4723663330078	-1422.240234375	32.51719665527344	-243.9830474853516	-1273.239501953125	383.7721557617188	-197.5179443359375	-1186.653076171875	43.93612289428711	-270.1688232421875	-1240.285522460938	31.34930992126465	-316.5318603515625	-1290.258178710938	40.10688400268555	-206.6561431884766	-1475.148193359375	38.22268676757812	-298.8127746582031	
438	4.37	-1293.6875	1110.9384765625	-266.0147705078125	-1287.474365234375	1118.185302734375	-400.8806457519531	-1294.0302734375	1158.16259765625	-334.1654968261719	-1039.823974609375	1329.865966796875	-324.4450378417969	-1296.533813476562	1313.277587890625	-328.183837890625	-1217.421997070312	1598.00244140625	-344.4941711425781	-1053.874633789062	1468.877075195312	-333.4348449707031	-1298.119262695312	1425.840698242188	-252.4419860839844	-1227.669189453125	1579.51611328125	-446.2305603027344	-1143.495361328125	1552.111328125	-513.6983032226562	-1183.349609375	1425.7685546875	-582.75	-1207.575561523438	1210.849609375	-611.454345703125	-1270.854248046875	1205.535034179688	-550.5748291015625	-1137.30712890625	942.6516723632812	-583.6398315429688	-1222.655517578125	927.07958984375	-604.8136596679688	-1207.276489257812	1093.93115234375	-620.5314331054688	-1147.743286132812	749.6755981445312	-564.9088134765625	-1202.444458007812	849.3613891601562	-609.9609375	-1133.250854492188	852.5813598632812	-597.6604614257812	-1164.86865234375	1576.026489257812	-162.87646484375	-1185.97705078125	1505.428466796875	-97.18527984619141	-1202.583740234375	1208.974975585938	-65.66185760498047	-1218.792602539062	1205.7470703125	-161.2138366699219	-1036.311889648438	982.6751708984375	-89.00364685058594	-1105.5849609375	956.9478149414062	-51.28576278686523	-1172.660400390625	1136.728637695312	-51.3763542175293	-988.3347778320312	792.4701538085938	-103.7937698364258	-993.2915649414062	878.9703369140625	-84.25829315185547	-1057.363037109375	863.4901123046875	-47.32910919189453	-1176.272216796875	1750.707763671875	-267.37744140625	-1022.851867675781	1823.682373046875	-408.1048583984375	-1018.248962402344	1831.20947265625	-278.3016052246094	-1188.84033203125	1746.3251953125	-402.5308532714844	-1187.83203125	1028.946899414062	-506.4916076660156	-1182.582763671875	1005.540588378906	-141.4954528808594	-1091.660888671875	1073.703979492188	-186.6797637939453	-1083.58935546875	1083.578002929688	-450.4320983886719	-1009.786560058594	554.7846069335938	-479.5683288574219	-1084.913330078125	682.7064208984375	-510.8750915527344	-956.4055786132812	38.7155647277832	-481.5231018066406	-1028.799438476562	290.5442199707031	-510.4887084960938	-744.7190551757812	114.6738204956055	-422.8489074707031	-821.0056762695312	95.90702819824219	-388.3964233398438	-835.517822265625	66.98760986328125	-500.0840148925781	-1025.663208007812	24.31174850463867	-420.0010375976562	-1227.218994140625	514.6173095703125	-199.8374938964844	-1176.975341796875	792.6907348632812	-158.2727813720703	-1422.760009765625	31.54109382629395	-243.7738647460938	-1277.14599609375	383.8077087402344	-196.1976318359375	-1187.062622070312	44.07851028442383	-270.1908874511719	-1240.618041992188	31.37922859191895	-316.4256896972656	-1290.667846679688	40.11228179931641	-206.5742034912109	-1475.5927734375	36.78836822509766	-298.74951171875	
